<svg version="1.1" id="svg1" inkscape:version="1.4.1-rc (06eac75fbf, 2025-03-29)" sodipodi:docname="sLmusic-mid.svg" xmlns:inkscape="http://www.inkscape.org/namespaces/inkscape" xmlns:sodipodi="http://sodipodi.sourceforge.net/DTD/sodipodi-0.dtd" xmlns="http://www.w3.org/2000/svg" xmlns:svg="http://www.w3.org/2000/svg" viewBox="0.13 87.52 209.68 63.38">
  <sodipodi:namedview id="namedview1" pagecolor="#ffffff" bordercolor="#000000" borderopacity="0.25" inkscape:showpageshadow="2" inkscape:pageopacity="0.0" inkscape:pagecheckerboard="0" inkscape:deskcolor="#d1d1d1" inkscape:document-units="mm" inkscape:zoom="0.74386226" inkscape:cx="292.39284" inkscape:cy="577.39184" inkscape:window-width="1366" inkscape:window-height="633" inkscape:window-x="0" inkscape:window-y="0" inkscape:window-maximized="1" inkscape:current-layer="layer1"/>
  <defs id="defs1">
    <rect x="134.98354" y="167.30355" width="250.00473" height="198.67296" id="rect1"/>
    <rect x="100.82512" y="496.0596" width="502.78126" height="629.14876" id="rect6"/>
  </defs>
  <g inkscape:label="mini" inkscape:groupmode="layer" id="layer1">
    <g id="g19" inkscape:label="music" transform="matrix(1.4359023,0,0,1.4359023,-68.40056,-107.32696)" style="fill:#005522">
      <path d="m 88.222981,151.05216 c -2.019448,0 -3.763584,0.40868 -5.232274,1.22648 -1.46869,0.81779 -2.728845,2.08647 -3.780293,3.80551 v -4.35595 h -4.631405 v 28.03867 h 4.631405 v -15.84716 c 0,-2.72042 0.692828,-4.87323 2.078069,-6.45875 1.385242,-1.60221 3.254395,-2.40348 5.607638,-2.40348 1.986069,0 3.454585,0.65115 4.405896,1.95295 0.951311,1.2851 1.427248,3.27927 1.427248,5.983 v 16.77344 h 4.630921 v -15.84716 c 0,-2.73711 0.692828,-4.89845 2.07807,-6.48397 1.385244,-1.58552 3.270964,-2.37826 5.657584,-2.37826 1.95269,0 3.40512,0.65115 4.35643,1.95295 0.95131,1.30179 1.42677,3.29596 1.42677,5.983 v 16.77344 h 4.6314 v -16.9233 c 0,-3.77186 -0.79274,-6.67623 -2.37826,-8.71237 -1.58552,-2.05283 -3.83874,-3.07904 -6.75943,-3.07904 -2.16965,0 -4.05538,0.49251 -5.65759,1.4772 -1.602202,0.98469 -2.97933,2.51145 -4.130917,4.58097 -0.684276,-1.96938 -1.744112,-3.47104 -3.179423,-4.5058 -1.418621,-1.03476 -3.1457,-1.55237 -5.181839,-1.55237 z" style="font-size:54.6326px;fill:#00aa44;stroke-width:0.267034" id="path2"/>
      <path d="m 58.612311,150.59022 c -3.406511,0 -6.035808,0.71107 -7.887891,2.1332 -1.852083,1.42214 -2.778125,3.43958 -2.778125,6.05235 0,2.14973 0.628386,3.84472 1.885156,5.08496 1.256771,1.22369 3.299024,2.1332 6.126758,2.72851 l 1.5875,0.37207 c 2.827735,0.61185 4.655013,1.2485 5.481836,1.90996 0.84336,0.66146 1.265039,1.61231 1.265039,2.85254 0,1.33946 -0.578776,2.38125 -1.736328,3.12539 -1.157552,0.72761 -2.811198,1.09141 -4.960937,1.09141 -1.604037,0 -3.22461,-0.21498 -4.861719,-0.64492 -1.637109,-0.44649 -3.299024,-1.10795 -4.985742,-1.98438 v 4.71289 c 1.785937,0.57878 3.480924,1.00873 5.084961,1.28985 1.620573,0.29765 3.175,0.44648 4.663281,0.44648 3.571875,0 6.374805,-0.75241 8.408789,-2.25723 2.050521,-1.50481 3.075781,-3.54707 3.075781,-6.12675 0,-2.2655 -0.686263,-4.02663 -2.058789,-5.2834 -1.355989,-1.27331 -3.654557,-2.25723 -6.895703,-2.95176 l -1.562695,-0.34727 c -2.447396,-0.5457 -4.076237,-1.11621 -4.886524,-1.71152 -0.810286,-0.61185 -1.215429,-1.44694 -1.215429,-2.50527 0,-1.38906 0.562239,-2.43086 1.686718,-3.12539 1.141016,-0.69453 2.844271,-1.0418 5.109766,-1.0418 1.488281,0 2.926953,0.16536 4.316016,0.49609 1.389062,0.33073 2.728515,0.82683 4.018359,1.48829 v -4.31602 c -1.256771,-0.49609 -2.629297,-0.86816 -4.117578,-1.11621 -1.488281,-0.24805 -3.075781,-0.37207 -4.7625,-0.37207 z" style="font-size:192px;white-space:pre;shape-inside:url(#rect6);fill:#00aa44" id="path17"/>
      <path d="m 56.183942,135.71394 v 44.04119 l 23.043549,1e-5 -4.648483,-4.21679 -13.384527,-1e-5 -2e-6,-39.82439 z" style="font-size:192px;white-space:pre;shape-inside:url(#rect6);fill:#005522" id="path18" sodipodi:nodetypes="ccccccc"/>
      <path d="m 49.831451,163.86073 c 1.256771,1.22369 3.299024,2.1332 6.126758,2.72851 l 1.5875,0.37207 c 2.827735,0.61185 4.655013,1.2485 5.481836,1.90996 0.84336,0.66146 1.265039,1.61231 1.265039,2.85254 0,1.33946 -0.578776,2.38125 -1.736328,3.12539 -1.157552,0.72761 -2.811198,1.09141 -4.960937,1.09141 -1.604037,0 -3.22461,-0.21498 -4.861719,-0.64492 -1.637109,-0.44649 -3.299024,-1.10795 -4.985742,-1.98438 v 4.71289 c 1.785937,0.57878 3.480924,1.00873 5.084961,1.28985 1.620573,0.29765 3.175,0.44648 4.663281,0.44648 3.571875,0 6.374805,-0.75241 8.408789,-2.25723 2.050521,-1.50481 3.075781,-3.54707 3.075781,-6.12675 0,-2.2655 -0.686263,-4.02663 -2.058789,-5.2834 -1.355989,-1.27331 -3.654557,-2.25723 -6.895703,-2.95176 l -1.562695,-0.34727 c -2.447396,-0.5457 -4.076237,-1.11621 -4.886524,-1.71152 1.474867,3.90463 3.766035,3.45506 -3.745508,2.77813 z" style="font-size:192px;white-space:pre;shape-inside:url(#rect6);opacity:1;fill:#00aa44" id="path19" sodipodi:nodetypes="ccccscsccccscsccccc"/>
    </g>
    <path d="m 198.17805,108.62563 c -6.27876,0 -11.22705,1.88155 -14.84572,5.64401 -3.5947,3.76246 -5.39261,8.9263 -5.39261,15.49263 0,6.47047 1.78566,11.61121 5.3564,15.4216 3.57074,3.81039 8.38781,5.71573 14.45087,5.71573 2.22873,0 4.32512,-0.21555 6.29024,-0.64692 1.98906,-0.43137 3.90666,-1.07872 5.75193,-1.94145 v -6.11127 c -1.86925,1.03049 -3.7508,1.80977 -5.64401,2.33699 -1.86923,0.50326 -3.76233,0.75486 -5.67951,0.75486 -4.28969,0 -7.62097,-1.35386 -9.99347,-4.06188 -2.3725,-2.73197 -3.55841,-6.55489 -3.55841,-11.46766 0,-4.91277 1.18591,-8.72275 3.55841,-11.43076 2.3725,-2.73198 5.70378,-4.09808 9.99347,-4.09808 1.91718,0 3.81028,0.26384 5.67951,0.79106 1.89321,0.50326 3.77476,1.2696 5.64401,2.30008 v -6.18299 c -1.82132,-0.83876 -3.70286,-1.46163 -5.64401,-1.86903 -1.94113,-0.43136 -3.9301,-0.64692 -5.9671,-0.64692 z" style="font-size:54.6326px;fill:#00aa44;stroke-width:0.383434" id="path7"/>
    <path d="m 169.66043,99.447819 v 8.375821 h 6.61403 v -8.375821 z" style="font-size:54.6326px;fill:#00aa44;stroke-width:0.383434" id="path6"/>
    <path d="m 169.66043,109.59636 v 40.26079 h 6.61403 v -40.26079 z" style="font-size:54.6326px;fill:#00aa44;stroke-width:0.383434" id="path5"/>
    <path d="m 151.64791,108.62563 c -4.93672,0 -8.74741,1.03018 -11.43145,3.09115 -2.68405,2.06096 -4.02565,4.98493 -4.02565,8.77136 0,3.11541 0.91049,5.57153 2.73181,7.36889 1.82132,1.77339 4.78064,3.0919 8.87861,3.95463 l 2.30077,0.53898 c 4.09796,0.8867 6.74585,1.80945 7.94408,2.76804 1.2222,0.95859 1.83351,2.33624 1.83351,4.13359 0,1.94114 -0.83841,3.45141 -2.51593,4.52983 -1.67755,1.05444 -4.07453,1.58143 -7.18994,1.58143 -2.32458,0 -4.67327,-0.31143 -7.04578,-0.93452 -2.3725,-0.64704 -4.78033,-1.60583 -7.22474,-2.87597 v 6.82991 c 2.58819,0.83876 5.04431,1.46233 7.36889,1.86973 2.34855,0.43137 4.60137,0.64692 6.75818,0.64692 5.17638,0 9.23795,-1.09072 12.18562,-3.27151 2.97162,-2.18078 4.4574,-5.1401 4.4574,-8.87859 0,-3.28317 -0.99413,-5.83586 -2.98321,-7.65718 -1.9651,-1.84528 -5.29638,-3.27123 -9.99347,-4.27775 l -2.26456,-0.50277 c -3.54678,-0.79083 -5.90702,-1.61771 -7.08129,-2.48043 -1.17428,-0.8867 -1.76179,-2.09709 -1.76179,-3.63083 0,-2.01304 0.81461,-3.52261 2.44422,-4.52913 1.65356,-1.00652 4.12194,-1.50971 7.4051,-1.50971 2.15683,0 4.24237,0.23935 6.25541,0.71865 2.01304,0.47929 3.95371,1.19803 5.82296,2.15662 v -6.25471 c -1.82132,-0.71894 -3.81029,-1.25817 -5.9671,-1.61764 -2.15683,-0.35947 -4.45724,-0.53899 -6.90165,-0.53899 z" style="font-size:54.6326px;fill:#00aa44;stroke-width:0.383434" id="path4"/>
    <path d="m 99.997994,109.59636 v 24.37193 c 0,5.53584 1.198146,9.74159 3.594606,12.61735 2.39648,2.87577 5.90727,4.31396 10.53245,4.31396 2.80388,0 5.2607,-0.58752 7.36959,-1.76179 2.13286,-1.19824 4.00216,-3.01925 5.60779,-5.46365 v 6.18299 h 6.61403 v -40.26079 h -6.61403 v 22.82601 c 0,3.93021 -1.04242,7.03369 -3.12734,9.31034 -2.06097,2.27664 -4.87681,3.41495 -8.44756,3.41495 -2.97162,0 -5.20064,-0.94655 -6.68646,-2.83976 -1.4858,-1.91718 -2.22835,-4.78061 -2.22835,-8.591 v -24.12054 z" style="font-size:54.6326px;fill:#00aa44;stroke-width:0.383434" id="path3"/>
  </g>
</svg>