<svg version="1.1" id="svg1" inkscape:version="1.4.1-rc (06eac75fbf, 2025-03-29)" sodipodi:docname="sLmusic-big.svg" xmlns:inkscape="http://www.inkscape.org/namespaces/inkscape" xmlns:sodipodi="http://sodipodi.sourceforge.net/DTD/sodipodi-0.dtd" xmlns="http://www.w3.org/2000/svg" xmlns:svg="http://www.w3.org/2000/svg" viewBox="1.55 35.67 206.02 46.32">
  <sodipodi:namedview id="namedview1" pagecolor="#ffffff" bordercolor="#000000" borderopacity="0.25" inkscape:showpageshadow="2" inkscape:pageopacity="0.0" inkscape:pagecheckerboard="0" inkscape:deskcolor="#d1d1d1" inkscape:document-units="mm" inkscape:zoom="0.74386226" inkscape:cx="326.67338" inkscape:cy="268.19481" inkscape:window-width="1366" inkscape:window-height="633" inkscape:window-x="0" inkscape:window-y="0" inkscape:window-maximized="1" inkscape:current-layer="layer1"/>
  <defs id="defs1">
    <rect x="134.98354" y="167.30355" width="250.00473" height="198.67296" id="rect1"/>
    <rect x="100.82512" y="496.0596" width="502.78126" height="629.14876" id="rect6"/>
  </defs>
  <g inkscape:label="mini" inkscape:groupmode="layer" id="layer1">
    <g id="g19" inkscape:label="music" transform="matrix(1.2181852,0,0,1.2181852,-56.582278,-138.14471)" style="fill:#005522">
      <path d="m 58.612311,150.59022 c -3.406511,0 -6.035808,0.71107 -7.887891,2.1332 -1.852083,1.42214 -2.778125,3.43958 -2.778125,6.05235 0,2.14973 0.628386,3.84472 1.885156,5.08496 1.256771,1.22369 3.299024,2.1332 6.126758,2.72851 l 1.5875,0.37207 c 2.827735,0.61185 4.655013,1.2485 5.481836,1.90996 0.84336,0.66146 1.265039,1.61231 1.265039,2.85254 0,1.33946 -0.578776,2.38125 -1.736328,3.12539 -1.157552,0.72761 -2.811198,1.09141 -4.960937,1.09141 -1.604037,0 -3.22461,-0.21498 -4.861719,-0.64492 -1.637109,-0.44649 -3.299024,-1.10795 -4.985742,-1.98438 v 4.71289 c 1.785937,0.57878 3.480924,1.00873 5.084961,1.28985 1.620573,0.29765 3.175,0.44648 4.663281,0.44648 3.571875,0 6.374805,-0.75241 8.408789,-2.25723 2.050521,-1.50481 3.075781,-3.54707 3.075781,-6.12675 0,-2.2655 -0.686263,-4.02663 -2.058789,-5.2834 -1.355989,-1.27331 -3.654557,-2.25723 -6.895703,-2.95176 l -1.562695,-0.34727 c -2.447396,-0.5457 -4.076237,-1.11621 -4.886524,-1.71152 -0.810286,-0.61185 -1.215429,-1.44694 -1.215429,-2.50527 0,-1.38906 0.562239,-2.43086 1.686718,-3.12539 1.141016,-0.69453 2.844271,-1.0418 5.109766,-1.0418 1.488281,0 2.926953,0.16536 4.316016,0.49609 1.389062,0.33073 2.728515,0.82683 4.018359,1.48829 v -4.31602 c -1.256771,-0.49609 -2.629297,-0.86816 -4.117578,-1.11621 -1.488281,-0.24805 -3.075781,-0.37207 -4.7625,-0.37207 z" style="font-size:192px;white-space:pre;shape-inside:url(#rect6);fill:#00aa44" id="path17"/>
      <path d="m 69.318943,143.12917 3.285933,37.55842 22.955862,-2.00837 -0.367518,-4.20075 -17.964389,1.57167 -2.91842,-33.35766 z" style="font-size:192px;white-space:pre;shape-inside:url(#rect6);fill:#005522" id="path18" sodipodi:nodetypes="ccccccc"/>
      <path d="m 49.831451,163.86073 c 1.256771,1.22369 3.299024,2.1332 6.126758,2.72851 l 1.5875,0.37207 c 2.827735,0.61185 4.655013,1.2485 5.481836,1.90996 0.84336,0.66146 1.265039,1.61231 1.265039,2.85254 0,1.33946 -0.578776,2.38125 -1.736328,3.12539 -1.157552,0.72761 -2.811198,1.09141 -4.960937,1.09141 -1.604037,0 -3.22461,-0.21498 -4.861719,-0.64492 -1.637109,-0.44649 -3.299024,-1.10795 -4.985742,-1.98438 v 4.71289 c 1.785937,0.57878 3.480924,1.00873 5.084961,1.28985 1.620573,0.29765 3.175,0.44648 4.663281,0.44648 3.571875,0 6.374805,-0.75241 8.408789,-2.25723 2.050521,-1.50481 3.075781,-3.54707 3.075781,-6.12675 0,-2.2655 -0.686263,-4.02663 -2.058789,-5.2834 -1.355989,-1.27331 -3.654557,-2.25723 -6.895703,-2.95176 l -1.562695,-0.34727 c -2.447396,-0.5457 -4.076237,-1.11621 -4.886524,-1.71152 1.474867,3.90463 3.766035,3.45506 -3.745508,2.77813 z" style="font-size:192px;white-space:pre;shape-inside:url(#rect6);opacity:1;fill:#00aa44" id="path19" sodipodi:nodetypes="ccccscsccccscsccccc"/>
    </g>
    <path d="m 197.69986,45.0643 c -5.32674,0 -9.52475,1.596255 -12.59475,4.788237 -3.04965,3.191982 -4.57496,7.572859 -4.57496,13.143578 0,5.489397 1.51492,9.850676 4.54425,13.08332 3.02933,3.232645 7.11601,4.849088 12.25977,4.849088 1.8908,0 3.66933,-0.182871 5.33649,-0.54883 1.68747,-0.36596 3.31431,-0.915165 4.8798,-1.647083 v -5.184649 c -1.58583,0.874237 -3.18209,1.53536 -4.78824,1.982644 -1.58582,0.426953 -3.19187,0.640401 -4.81837,0.640401 -3.63926,0 -6.46544,-1.148581 -8.47822,-3.445995 -2.01277,-2.317745 -3.01887,-5.56102 -3.01887,-9.728896 0,-4.167874 1.0061,-7.400169 3.01887,-9.697583 2.01278,-2.317745 4.83896,-3.476715 8.47822,-3.476715 1.6265,0 3.23255,0.223837 4.81837,0.671121 1.60615,0.426953 3.20241,1.077095 4.78824,1.951332 v -5.245498 c -1.54516,-0.711588 -3.14142,-1.240013 -4.78824,-1.585642 -1.64681,-0.36596 -3.33421,-0.54883 -5.06236,-0.54883 z" style="font-size:54.6326px;fill:#00aa44;stroke-width:0.325297" id="path7"/>
    <path d="m 173.5062,37.278058 v 7.10585 h 5.61119 v -7.10585 z" style="font-size:54.6326px;fill:#00aa44;stroke-width:0.325297" id="path6"/>
    <path d="m 173.5062,45.887841 v 34.156291 h 5.61119 V 45.887841 Z" style="font-size:54.6326px;fill:#00aa44;stroke-width:0.325297" id="path5"/>
    <path d="m 158.22481,45.0643 c -4.1882,0 -7.42109,0.87398 -9.69817,2.622453 -2.27708,1.748474 -3.41527,4.229098 -3.41527,7.441411 0,2.643043 0.77244,4.726758 2.31761,6.251589 1.54517,1.504502 4.05578,2.623096 7.5324,3.355016 l 1.95192,0.45726 c 3.47661,0.752251 5.72301,1.535091 6.73956,2.348334 1.03689,0.813244 1.55551,1.982013 1.55551,3.506845 0,1.646819 -0.71129,2.928096 -2.13446,3.842996 -1.42318,0.894569 -3.45672,1.341651 -6.09977,1.341651 -1.97211,0 -3.96469,-0.264212 -5.97747,-0.79282 -2.01277,-0.54894 -4.05551,-1.362356 -6.12929,-2.439904 v 5.794328 c 2.19576,0.711589 4.27947,1.240605 6.25159,1.586234 1.99245,0.365959 3.90368,0.54883 5.73348,0.54883 4.39151,0 7.83726,-0.925335 10.33798,-2.775464 2.52106,-1.850131 3.78156,-4.360741 3.78156,-7.532391 0,-2.785361 -0.8434,-4.951007 -2.53089,-6.496171 -1.66714,-1.565493 -4.49332,-2.775229 -8.47822,-3.629135 l -1.9212,-0.42654 c -3.009,-0.670926 -5.01138,-1.372424 -6.0076,-2.104343 -0.99623,-0.752251 -1.49466,-1.779114 -1.49466,-3.080304 0,-1.707813 0.6911,-2.988501 2.07362,-3.842407 1.40285,-0.853906 3.49695,-1.280801 6.28231,-1.280801 1.8298,0 3.59913,0.203058 5.30694,0.60968 1.70782,0.406622 3.35424,1.016389 4.94007,1.829633 V 46.893932 C 167.59719,46.284 165.9098,45.826526 164.08,45.521561 162.2502,45.216594 160.29859,45.0643 158.22481,45.0643 Z" style="font-size:54.6326px;fill:#00aa44;stroke-width:0.325297" id="path4"/>
    <path d="m 114.40626,45.887841 v 20.67656 c 0,4.696483 1.01647,8.264535 3.04958,10.704266 2.03311,2.439732 5.01159,3.659856 8.93549,3.659856 2.37873,0 4.46304,-0.498439 6.25217,-1.494663 1.80947,-1.016554 3.39533,-2.561455 4.75751,-4.635226 v 5.245498 h 5.61119 V 45.887841 h -5.61119 v 19.365038 c 0,3.3343 -0.88436,5.967217 -2.65316,7.898672 -1.74848,1.931454 -4.13738,2.897164 -7.1667,2.897164 -2.52106,0 -4.41211,-0.803027 -5.67263,-2.409184 -1.26053,-1.626486 -1.89049,-4.055755 -1.89049,-7.2884 v -20.46329 z" style="font-size:54.6326px;fill:#00aa44;stroke-width:0.325297" id="path3"/>
    <path d="m 79.012879,45.86479 c -2.460062,0 -4.584743,0.497849 -6.373879,1.494072 -1.789136,0.996223 -3.324238,2.541715 -4.605097,4.635817 v -5.306348 h -5.641908 v 34.156291 h 5.641908 V 61.539843 c 0,-3.313969 0.843993,-5.936498 2.531474,-7.867952 1.687481,-1.951785 3.964455,-2.927885 6.83114,-2.927885 2.419401,0 4.208325,0.79323 5.367198,2.379054 1.158873,1.565495 1.738652,3.994764 1.738652,7.288401 v 20.433161 h 5.641314 V 61.539843 c 0,-3.3343 0.843994,-5.967218 2.53148,-7.898672 1.687485,-1.931454 3.984639,-2.897165 6.891987,-2.897165 2.378742,0 4.148072,0.79323 5.306942,2.379054 1.15887,1.585826 1.73806,4.015095 1.73806,7.288401 v 20.433161 h 5.6419 v -20.61571 c 0,-4.594828 -0.9657,-8.132893 -2.89716,-10.613287 -1.93145,-2.500724 -4.67629,-3.750835 -8.23423,-3.750835 -2.643036,0 -4.940201,0.599968 -6.891987,1.799503 -1.951787,1.199534 -3.629384,3.059412 -5.03223,5.580468 -0.833574,-2.39907 -2.124651,-4.22837 -3.873125,-5.488898 -1.728143,-1.260529 -3.832045,-1.891073 -6.312439,-1.891073 z" style="font-size:54.6326px;fill:#00aa44;stroke-width:0.325297" id="path2"/>
  </g>
</svg>