<svg version="1.1" id="svg1" inkscape:version="1.4.1-rc (06eac75fbf, 2025-03-29)" sodipodi:docname="sLmusic-mini.svg" xmlns:inkscape="http://www.inkscape.org/namespaces/inkscape" xmlns:sodipodi="http://sodipodi.sourceforge.net/DTD/sodipodi-0.dtd" xmlns="http://www.w3.org/2000/svg" xmlns:svg="http://www.w3.org/2000/svg" viewBox="0.58 31.97 208.23 244.43">
  <sodipodi:namedview id="namedview1" pagecolor="#ffffff" bordercolor="#000000" borderopacity="0.25" inkscape:showpageshadow="2" inkscape:pageopacity="0.0" inkscape:pagecheckerboard="0" inkscape:deskcolor="#d1d1d1" inkscape:document-units="mm" inkscape:zoom="0.37193114" inkscape:cx="99.480781" inkscape:cy="727.28517" inkscape:window-width="1366" inkscape:window-height="633" inkscape:window-x="0" inkscape:window-y="0" inkscape:window-maximized="1" inkscape:current-layer="layer1"/>
  <defs id="defs1">
    <rect x="100.82512" y="496.0596" width="502.78126" height="629.14876" id="rect6"/>
  </defs>
  <g inkscape:label="mini" inkscape:groupmode="layer" id="layer1">
    <g id="g19" inkscape:label="music" transform="matrix(5.6685172,0,0,5.6685172,-265.8292,-753.39013)">
      <path d="m 58.612311,150.59022 c -3.406511,0 -6.035808,0.71107 -7.887891,2.1332 -1.852083,1.42214 -2.778125,3.43958 -2.778125,6.05235 0,2.14973 0.628386,3.84472 1.885156,5.08496 1.256771,1.22369 3.299024,2.1332 6.126758,2.72851 l 1.5875,0.37207 c 2.827735,0.61185 4.655013,1.2485 5.481836,1.90996 0.84336,0.66146 1.265039,1.61231 1.265039,2.85254 0,1.33946 -0.578776,2.38125 -1.736328,3.12539 -1.157552,0.72761 -2.811198,1.09141 -4.960937,1.09141 -1.604037,0 -3.22461,-0.21498 -4.861719,-0.64492 -1.637109,-0.44649 -3.299024,-1.10795 -4.985742,-1.98438 v 4.71289 c 1.785937,0.57878 3.480924,1.00873 5.084961,1.28985 1.620573,0.29765 3.175,0.44648 4.663281,0.44648 3.571875,0 6.374805,-0.75241 8.408789,-2.25723 2.050521,-1.50481 3.075781,-3.54707 3.075781,-6.12675 0,-2.2655 -0.686263,-4.02663 -2.058789,-5.2834 -1.355989,-1.27331 -3.654557,-2.25723 -6.895703,-2.95176 l -1.562695,-0.34727 c -2.447396,-0.5457 -4.076237,-1.11621 -4.886524,-1.71152 -0.810286,-0.61185 -1.215429,-1.44694 -1.215429,-2.50527 0,-1.38906 0.562239,-2.43086 1.686718,-3.12539 1.141016,-0.69453 2.844271,-1.0418 5.109766,-1.0418 1.488281,0 2.926953,0.16536 4.316016,0.49609 1.389062,0.33073 2.728515,0.82683 4.018359,1.48829 v -4.31602 c -1.256771,-0.49609 -2.629297,-0.86816 -4.117578,-1.11621 -1.488281,-0.24805 -3.075781,-0.37207 -4.7625,-0.37207 z" style="font-size:192px;white-space:pre;shape-inside:url(#rect6)" id="path17"/>
      <path d="m 47.01,140.26868 15.062974,41.38518 21.653856,-7.88135 -1.44223,-3.96249 -16.945486,6.16765 -13.620747,-37.42269 z" style="font-size:192px;white-space:pre;shape-inside:url(#rect6);fill:#00aa44" id="path18" sodipodi:nodetypes="ccccccc"/>
      <path d="m 49.831451,163.86073 c 1.256771,1.22369 3.299024,2.1332 6.126758,2.72851 l 1.5875,0.37207 c 2.827735,0.61185 4.655013,1.2485 5.481836,1.90996 0.84336,0.66146 1.265039,1.61231 1.265039,2.85254 0,1.33946 -0.578776,2.38125 -1.736328,3.12539 -1.157552,0.72761 -2.811198,1.09141 -4.960937,1.09141 -1.604037,0 -3.22461,-0.21498 -4.861719,-0.64492 -1.637109,-0.44649 -3.299024,-1.10795 -4.985742,-1.98438 v 4.71289 c 1.785937,0.57878 3.480924,1.00873 5.084961,1.28985 1.620573,0.29765 3.175,0.44648 4.663281,0.44648 3.571875,0 6.374805,-0.75241 8.408789,-2.25723 2.050521,-1.50481 3.075781,-3.54707 3.075781,-6.12675 0,-2.2655 -0.686263,-4.02663 -2.058789,-5.2834 -1.355989,-1.27331 -3.654557,-2.25723 -6.895703,-2.95176 l -1.562695,-0.34727 c -2.447396,-0.5457 -4.076237,-1.11621 -4.886524,-1.71152 1.474867,3.90463 3.766035,3.45506 -3.745508,2.77813 z" style="font-size:192px;white-space:pre;shape-inside:url(#rect6);opacity:1" id="path19" sodipodi:nodetypes="ccccscsccccscsccccc"/>
    </g>
  </g>
</svg>